<svg xmlns="http://www.w3.org/2000/svg" version="1.1" xmlns:xlink="http://www.w3.org/1999/xlink" width="1832" height="1832"><svg width="1832" height="1832" viewBox="0 0 1832 1832" fill="none" xmlns="http://www.w3.org/2000/svg">
<rect width="1832" height="1832" rx="916" fill="white"></rect>
<path d="M1297.73 1126.67C1277.53 1126.67 1261.49 1119.59 1249.62 1105.45C1237.75 1091.06 1233.58 1073.63 1237.12 1053.17C1239.9 1036.5 1247.98 1022.61 1261.36 1011.5C1274.75 1000.39 1290.03 994.83 1307.2 994.83C1327.41 994.83 1343.44 1002.03 1355.31 1016.42C1367.19 1030.57 1371.35 1047.87 1367.82 1068.32C1365.04 1084.99 1356.96 1098.88 1343.57 1110C1330.19 1121.11 1314.91 1126.67 1297.73 1126.67Z" fill="#FF3C00"></path>
<path d="M949.64 1277.82C932.214 1278.07 915.797 1276.81 900.391 1274.03C885.238 1271.51 872.105 1267.97 860.992 1263.43L911.756 1155.08L913.651 1155.84C930.825 1162.15 945.852 1164.8 958.732 1163.79C971.865 1162.78 982.22 1156.85 989.797 1145.99L995.101 1138.41L919.333 695.927H1073.14L1092.08 989.148H1096.63L1214.83 695.927H1380L1149.67 1155.08C1138.05 1178.31 1123.4 1199.15 1105.72 1217.59C1088.29 1236.28 1066.83 1250.92 1041.32 1261.53C1015.81 1272.39 985.251 1277.82 949.64 1277.82Z" fill="#0C0C11"></path>
<path d="M723.248 1124.77C703.548 1124.77 686.374 1121.61 671.726 1115.3C657.33 1108.73 645.712 1099.77 636.873 1088.4C628.033 1077.04 621.972 1064.16 618.689 1049.76H614.142L603.535 1119.47H452L545.952 555H698.244L662.634 770.18H664.907C672.736 755.784 682.965 742.525 695.593 730.402C708.22 718.279 723.121 708.682 740.295 701.61C757.469 694.286 776.538 690.624 797.5 690.624C825.534 690.624 850.79 698.074 873.267 712.975C895.998 727.876 912.666 751.364 923.274 783.439C933.881 815.261 934.892 856.807 926.305 908.077C918.223 956.82 903.827 997.23 883.117 1029.3C862.66 1061.38 838.414 1085.37 810.38 1101.28C782.599 1116.94 753.555 1124.77 723.248 1124.77ZM686.879 1008.09C701.023 1008.09 713.65 1004.18 724.763 996.346C736.128 988.264 745.599 976.772 753.176 961.871C761.005 946.718 766.435 928.786 769.466 908.077C773.002 887.114 773.381 869.183 770.602 854.282C767.824 839.128 762.142 827.51 753.555 819.429C745.22 811.347 734.108 807.306 720.217 807.306C706.326 807.306 693.572 811.347 681.954 819.429C670.589 827.51 660.992 839.128 653.163 854.282C645.333 869.183 639.651 887.114 636.115 908.077C633.084 928.534 632.958 946.213 635.736 961.114C638.767 976.015 644.576 987.632 653.163 995.967C661.75 1004.05 672.989 1008.09 686.879 1008.09Z" fill="#0C0C11"></path>
</svg><style>@media (prefers-color-scheme: light) { :root { filter: none; } }
@media (prefers-color-scheme: dark) { :root { filter: none; } }
</style></svg>